<svg width="1440" height="768" viewBox="0 0 1440 768" fill="none" xmlns="http://www.w3.org/2000/svg">
<g clip-path="url(#clip0_7_287)">
<rect width="1440" height="768" fill="#12130F"/>
<path d="M1625.91 386.536C1591.21 329.22 1535.18 288.048 1470.14 272.065C1405.09 256.084 1336.36 266.61 1279.06 301.326C1221.76 336.042 1180.59 392.103 1164.6 457.183C1148.61 522.256 1159.12 591.015 1193.81 648.326L1310.1 849.373L1310.09 849.372C1313.54 855.328 1319.27 859.62 1325.95 861.254C1332.63 862.889 1339.69 861.725 1345.5 858.033L1541.03 733.642C1598.24 698.813 1639.3 642.706 1655.22 577.641C1671.13 512.568 1660.59 443.849 1625.91 386.543L1625.91 386.536ZM1379.97 640.358C1347.44 632.401 1319.4 611.84 1302.03 583.201C1284.65 554.562 1279.36 520.187 1287.32 487.643C1295.28 455.099 1315.84 427.047 1344.47 409.661C1373.1 392.275 1407.47 386.981 1440 394.937C1472.53 402.894 1500.57 423.451 1517.94 452.09C1535.31 480.729 1540.6 515.103 1532.64 547.647C1524.65 580.174 1504.08 608.199 1475.46 625.579C1446.84 642.958 1412.5 648.275 1379.97 640.358Z" fill="#1C1E17" fill-opacity="0.6"/>
<path d="M1110.9 677.01C1081.07 668.979 1049.28 673.128 1022.53 688.538C995.766 703.952 976.229 729.368 968.212 759.196C960.193 789.024 964.351 820.821 979.772 847.594C995.191 874.363 1020.61 893.915 1050.43 901.944L1153.25 931.837L1153.25 931.838C1156.3 932.723 1159.57 932.327 1162.32 930.741C1165.07 929.155 1167.05 926.516 1167.81 923.435L1193.28 819.676C1201.23 789.839 1197.02 758.061 1181.58 731.317C1166.13 704.571 1140.72 685.043 1110.9 677.01L1110.9 677.01ZM1109.9 839.948C1096.52 847.668 1080.63 849.758 1065.72 845.757C1050.8 841.757 1038.08 831.995 1030.36 818.618C1022.63 805.241 1020.54 789.344 1024.53 774.427C1028.53 759.509 1038.28 746.792 1051.65 739.072C1065.03 731.352 1080.92 729.261 1095.83 733.261C1110.75 737.261 1123.47 747.023 1131.19 760.4C1138.9 773.784 1140.98 789.672 1136.99 804.585C1133 819.497 1123.25 832.216 1109.9 839.948Z" fill="#1C1E17" fill-opacity="0.6"/>
<path d="M269.253 -73.6787C251.017 -121.362 214.587 -159.836 167.986 -180.645C121.377 -201.453 68.4122 -202.886 20.74 -184.628C-26.936 -166.372 -65.4138 -129.921 -86.2316 -83.2916C-107.047 -36.667 -108.496 16.3163 -90.2582 63.9962L-30.3419 230.523L-30.3448 230.521C-28.5669 235.455 -24.8551 239.45 -20.0661 241.582C-15.2771 243.715 -9.82415 243.8 -4.96841 241.82L158.518 175.075C206.139 156.72 244.544 120.221 265.304 73.593C286.064 26.9582 287.484 -25.9985 269.258 -73.673L269.253 -73.6787ZM50.4071 83.2769C27.0944 72.8974 8.86036 53.6761 -0.281906 29.8448C-9.42418 6.01353 -8.72711 -20.4792 1.65672 -43.8016C12.0406 -67.124 31.2621 -85.369 55.0896 -94.5212C78.9171 -103.673 105.401 -102.981 128.714 -92.6017C152.026 -82.2222 170.262 -63.0039 179.404 -39.1726C188.546 -15.3413 187.849 11.1514 177.465 34.4738C167.054 57.7778 147.835 76.0021 124.016 85.1509C100.197 94.2997 73.7233 93.6264 50.4071 83.2769Z" fill="#1C1E17" fill-opacity="0.6"/>
<path d="M-245.285 540.461C-246.553 541.76 -247.029 543.634 -246.542 545.379C-246.047 547.125 -244.664 548.475 -242.913 548.926L-146.419 573.373C-144.692 573.88 -142.82 573.437 -141.508 572.209C-140.192 570.977 -139.626 569.139 -140.022 567.386L-147.902 539.463L-148.925 535.785L-29.8062 504.561C-14.6185 500.377 1.59143 502.108 15.5612 509.398C31.0827 517.759 42.0809 532.591 45.5748 549.875C47.0064 556.026 49.1122 562.004 51.8635 567.687L1.31828 587.161C-2.46536 588.627 -4.34995 592.874 -2.9019 596.66L3.71579 613.862C4.42592 615.68 5.83816 617.144 7.62537 617.926C9.41985 618.709 11.446 618.746 13.2682 618.033L71.9418 595.39L71.9383 595.386C93.0637 614.816 121.815 623.688 150.214 619.54L172.145 616.36C173.351 616.138 174.498 616.071 175.701 615.958L175.697 615.954C169.492 629.33 158.334 639.774 144.572 645.086C120.192 653.991 100.723 672.805 90.9812 696.862C81.6936 720.503 82.1112 746.855 92.1524 770.187L139.277 884.103L134.944 886.041L108.41 897.666L108.403 897.665C106.747 898.392 105.599 899.938 105.391 901.73C105.182 903.529 105.941 905.294 107.388 906.381L187.265 965.436C188.712 966.523 190.634 966.735 192.29 966.002C193.946 965.268 195.073 963.699 195.245 961.899L206.234 862.772C206.417 860.976 205.64 859.221 204.185 858.156C202.731 857.09 200.82 856.874 199.168 857.59L172.686 869.166L169.148 870.662L122.076 756.803L122.073 756.8C115.819 742.332 115.261 726.036 120.509 711.17C126.609 694.6 139.774 681.611 156.424 675.741C179.701 667.221 198.254 649.195 207.446 626.172C216.191 633.096 222.166 642.922 224.293 653.868L238.232 723.712C238.608 725.632 239.736 727.326 241.361 728.416C242.985 729.505 244.978 729.905 246.898 729.522L264.985 726.007L264.982 726.003C268.757 725.1 271.183 721.416 270.524 717.594L256.902 647.551C254.071 632.728 247.08 619.02 236.746 608.025C230.344 601.222 222.81 595.585 214.484 591.349C214.652 581.766 213.392 572.204 210.735 562.993L204.514 541.587C201.134 530.084 202.318 517.715 207.822 507.063C213.326 496.41 222.726 488.288 234.067 484.383L301.76 461.358C303.666 460.771 305.25 459.436 306.152 457.663C307.054 455.884 307.202 453.818 306.552 451.936L300.456 434.645C299.812 432.8 298.464 431.284 296.704 430.434C294.948 429.587 292.921 429.473 291.076 430.117L223.383 453.141L223.379 453.137C203.978 459.802 187.888 473.681 178.456 491.899C169.024 510.117 166.979 531.269 172.741 550.953L178.962 572.253L178.965 572.257C179.99 575.765 180.692 579.363 181.059 583.002C176.352 582.82 171.636 583.049 166.967 583.684L144.983 586.913L144.987 586.917C132.198 588.758 119.151 586.541 107.693 580.575C124.922 570.47 137.922 554.477 144.292 535.544C150.659 516.613 149.97 496.015 142.351 477.548C135.148 458.729 136.705 437.681 146.598 420.128L188.888 344.749L193.084 346.97L218.677 360.628L218.676 360.635C220.285 361.437 222.196 361.33 223.707 360.351C225.218 359.373 226.096 357.673 226.025 355.875L222.709 256.225L222.701 256.225C222.641 254.417 221.627 252.777 220.035 251.925C218.443 251.066 216.516 251.119 214.977 252.06L130.306 304.788C128.784 305.755 127.892 307.462 127.96 309.263C128.031 311.068 129.049 312.696 130.641 313.548L156.234 327.207L159.556 329.035L120.131 399.825C104.131 426.99 100.985 459.845 111.534 489.551C116.396 502.157 116.111 516.168 110.745 528.57C105.371 540.972 95.3494 550.766 82.8275 555.846C80.6332 551.555 78.9815 547.002 77.9129 542.298C72.4668 516.909 56.569 494.994 34.1216 481.937C11.9711 469.334 -14.2687 466.018 -38.8589 472.7L-158.125 503.653L-159.38 499.081L-167.26 471.158C-167.726 469.406 -169.105 468.045 -170.863 467.595C-172.622 467.151 -174.481 467.689 -175.731 469.007L-245.285 540.461Z" fill="#8FCB9B"/>
<path d="M1723.1 -148.083C1723.14 -150.128 1722.09 -152.039 1720.35 -153.103C1718.6 -154.162 1716.42 -154.211 1714.63 -153.235L1616.28 -99.1596C1614.47 -98.2494 1613.27 -96.4446 1613.13 -94.4226C1612.99 -92.3948 1613.94 -90.4445 1615.61 -89.3038L1643.59 -72.3485L1647.26 -70.1032L1573.09 47.2676C1563.79 62.4 1549.09 73.4424 1531.97 78.1798C1512.74 83.227 1492.27 79.461 1476.09 67.9016C1470.18 63.9321 1463.85 60.6246 1457.21 58.0566L1483.89 3.12178C1485.88 -0.997499 1484.17 -5.94798 1480.06 -7.95546L1461.38 -17.0442C1459.39 -17.9969 1457.1 -18.1171 1455.03 -17.3871C1452.95 -16.6517 1451.25 -15.1243 1450.29 -13.1344L1419.35 50.6654L1419.35 50.6658C1386.99 50.9004 1356.47 65.7041 1336.25 90.9684L1320.62 110.461C1319.79 111.571 1318.9 112.509 1317.99 113.527L1318 113.528C1312.82 97.7285 1313.99 80.5356 1321.25 65.571C1334.49 39.4751 1336.07 8.99053 1325.59 -18.3344C1315.06 -44.9661 1294.45 -66.3676 1268.22 -77.8766L1141.75 -135.528L1143.83 -140.46L1156.76 -170.454L1156.77 -170.459C1157.57 -172.331 1157.33 -174.489 1156.12 -176.126C1154.91 -177.77 1152.93 -178.641 1150.9 -178.424L1039.62 -165.658C1037.6 -165.442 1035.85 -164.138 1035.05 -162.26C1034.25 -160.381 1034.52 -158.221 1035.77 -156.605L1102.96 -66.4387C1104.19 -64.8174 1106.18 -63.9688 1108.2 -64.2093C1110.22 -64.4499 1111.96 -65.7422 1112.77 -67.6025L1125.7 -97.5163L1127.46 -101.471L1253.85 -43.825L1253.86 -43.8246C1270.14 -36.7092 1283.14 -23.7054 1290.25 -7.41431C1297.97 10.9372 1297.11 31.7715 1287.9 49.4179C1275.26 74.3474 1273.83 103.478 1283.97 129.527C1271.43 130.547 1258.95 127.044 1248.78 119.658L1183.56 72.8056C1181.77 71.5122 1179.54 70.9837 1177.36 71.3354C1175.18 71.6871 1173.23 72.89 1171.95 74.6831L1159.74 91.4937L1159.75 91.4941C1157.33 95.1434 1158.16 100.046 1161.65 102.69L1226.76 149.948C1240.49 159.99 1256.8 165.911 1273.78 167.026C1284.29 167.709 1294.83 166.56 1304.95 163.647C1312.19 171.676 1320.58 178.588 1329.86 184.137L1351.45 196.998C1363.09 203.88 1371.63 214.986 1375.28 228.001C1378.94 241.017 1377.44 254.942 1371.1 266.886L1333.01 337.938C1331.89 339.888 1331.61 342.208 1332.23 344.363C1332.85 346.523 1334.32 348.341 1336.3 349.392L1354.63 358.955C1356.58 359.981 1358.86 360.193 1360.96 359.541C1363.06 358.888 1364.82 357.423 1365.85 355.472L1403.94 284.42L1403.94 284.42C1414.81 264.002 1417.39 240.184 1411.16 217.911C1404.92 195.638 1390.33 176.63 1370.44 164.836L1348.93 152.062L1348.92 152.062C1345.38 149.959 1342.03 147.533 1338.93 144.816C1342.95 141.344 1346.66 137.527 1350.02 133.414L1365.66 113.84L1365.65 113.84C1374.78 102.485 1387.24 94.2754 1401.27 90.3793C1394.84 111.963 1396.43 135.147 1405.74 155.653C1415.06 176.156 1431.47 192.606 1451.96 201.967C1472.37 211.939 1487.28 230.487 1492.63 252.567L1515.75 347.235L1510.58 348.632L1478.98 357.06L1478.97 357.054C1477.03 357.631 1475.54 359.189 1475.05 361.158C1474.55 363.127 1475.14 365.204 1476.58 366.63L1555.97 446.224L1555.98 446.218C1557.42 447.662 1559.51 448.234 1561.48 447.711C1563.45 447.195 1565 445.669 1565.55 443.709L1594.78 335.111C1595.29 333.143 1594.71 331.05 1593.27 329.617C1591.83 328.185 1589.73 327.625 1587.77 328.148L1556.16 336.576L1552.02 337.624L1530.06 248.943C1522.35 214.243 1499.67 184.739 1468.13 168.367C1454.42 161.716 1443.88 149.946 1438.76 135.595C1433.65 121.239 1434.38 105.456 1440.79 91.636C1445.9 93.4852 1450.77 95.9677 1455.27 99.0233C1479.29 115.763 1509.25 121.598 1537.8 115.093C1565.75 108.443 1589.93 90.9922 1605.06 66.5675L1679.56 -50.6934L1684.12 -47.8896L1712.09 -30.9343C1713.82 -29.8478 1716.01 -29.787 1717.8 -30.768C1719.59 -31.7553 1720.71 -33.6295 1720.73 -35.6771L1723.1 -148.083Z" fill="#D8C083"/>
</g>
<defs>
<clipPath id="clip0_7_287">
<rect width="1440" height="768" fill="white"/>
</clipPath>
</defs>
</svg>
