<svg width="128" height="128" viewBox="0 0 128 128" fill="none" xmlns="http://www.w3.org/2000/svg">
<rect width="128" height="128" rx="32" fill="#8FCB9B"/>
<path d="M88 43L74 50.5L64 75.5L79.5 79.5L81.5 64.5L96.5 50.5L88 43Z" fill="white"/>
<path d="M56 49L41.5 50.5L43 81.5L63.5 77.5L56 49Z" fill="white"/>
<mask id="path-4-outside-1_18_222" maskUnits="userSpaceOnUse" x="11.7984" y="31.5217" width="101" height="66" fill="black">
<rect fill="white" x="11.7984" y="31.5217" width="101" height="66"/>
<path fill-rule="evenodd" clip-rule="evenodd" d="M87.8957 44.9767L81.4408 48.2572L79.0599 55.5589L74.1921 53.9717L68.4777 46.7231L69.2714 44.2892L73.2925 40.215L84.6152 38.5217L96.7846 42.4898L104.933 50.532L105.78 56.1934L104.192 61.0612L96.9437 66.7756L91.2823 67.6222L80.7532 66.8816L81.5999 72.543L79.166 71.7494L75.8854 65.2944L76.6791 62.8605L88.0018 61.1672L92.0229 57.0931L93.6102 52.2253L90.3296 45.7703L87.8957 44.9767ZM86.5207 82.2255L85.727 84.6594L78.4784 90.3738L76.0446 89.5802L70.3301 82.3316L71.1238 79.8977L78.3724 74.1833L80.8062 74.9769L86.5207 82.2255ZM58.5018 47.0536L48.732 46.423L27.7984 49.2225L32.1135 52.5196L36.1854 82.9685L32.8883 87.2837L55.725 84.2297L63.0828 81.3087L69.677 72.6785L70.3076 62.9087L67.1321 53.6479L58.5018 47.0536ZM53.3016 51.6232L55.4592 53.2718L57.8713 56.8234L59.9072 72.0479L58.5131 76.1085L56.8646 78.266L53.313 80.6781L47.6038 81.4416L45.4462 79.793L41.8833 53.1502L43.5319 50.9926L49.241 50.2292L53.3016 51.6232Z"/>
</mask>
<path fill-rule="evenodd" clip-rule="evenodd" d="M87.8957 44.9767L81.4408 48.2572L79.0599 55.5589L74.1921 53.9717L68.4777 46.7231L69.2714 44.2892L73.2925 40.215L84.6152 38.5217L96.7846 42.4898L104.933 50.532L105.78 56.1934L104.192 61.0612L96.9437 66.7756L91.2823 67.6222L80.7532 66.8816L81.5999 72.543L79.166 71.7494L75.8854 65.2944L76.6791 62.8605L88.0018 61.1672L92.0229 57.0931L93.6102 52.2253L90.3296 45.7703L87.8957 44.9767ZM86.5207 82.2255L85.727 84.6594L78.4784 90.3738L76.0446 89.5802L70.3301 82.3316L71.1238 79.8977L78.3724 74.1833L80.8062 74.9769L86.5207 82.2255ZM58.5018 47.0536L48.732 46.423L27.7984 49.2225L32.1135 52.5196L36.1854 82.9685L32.8883 87.2837L55.725 84.2297L63.0828 81.3087L69.677 72.6785L70.3076 62.9087L67.1321 53.6479L58.5018 47.0536ZM53.3016 51.6232L55.4592 53.2718L57.8713 56.8234L59.9072 72.0479L58.5131 76.1085L56.8646 78.266L53.313 80.6781L47.6038 81.4416L45.4462 79.793L41.8833 53.1502L43.5319 50.9926L49.241 50.2292L53.3016 51.6232Z" fill="#8FCB9B"/>
<path d="M81.4408 48.2572L78.7224 42.9084L76.5068 44.0344L75.7363 46.3972L81.4408 48.2572ZM87.8957 44.9767L89.7558 39.2723L87.3929 38.5019L85.1774 39.6278L87.8957 44.9767ZM79.0599 55.5589L77.1999 61.2633L82.9043 63.1233L84.7643 57.4189L79.0599 55.5589ZM74.1921 53.9717L69.4803 57.6863L70.605 59.1129L72.3321 59.6761L74.1921 53.9717ZM68.4777 46.7231L62.7733 44.863L61.7779 47.9159L63.7659 50.4377L68.4777 46.7231ZM69.2714 44.2892L65.001 40.0744L64.006 41.0825L63.5669 42.4291L69.2714 44.2892ZM73.2925 40.215L72.405 34.281L70.427 34.5768L69.0221 36.0003L73.2925 40.215ZM84.6152 38.5217L86.4752 32.8173L85.1286 32.3782L83.7278 32.5877L84.6152 38.5217ZM96.7846 42.4898L100.999 38.2195L99.9913 37.2245L98.6447 36.7854L96.7846 42.4898ZM104.933 50.532L110.867 49.6446L110.571 47.6666L109.148 46.2617L104.933 50.532ZM105.78 56.1934L111.484 58.0534L111.923 56.7068L111.714 55.306L105.78 56.1934ZM104.192 61.0612L107.907 65.773L109.334 64.6484L109.897 62.9212L104.192 61.0612ZM96.9437 66.7756L97.8312 72.7096L99.407 72.4739L100.658 71.4874L96.9437 66.7756ZM91.2823 67.6222L90.8614 73.6074L91.5184 73.6537L92.1698 73.5562L91.2823 67.6222ZM80.7532 66.8816L81.1742 60.8964L73.7129 60.3716L74.8192 67.7691L80.7532 66.8816ZM81.5999 72.543L79.7398 78.2474L88.9698 81.257L87.5339 71.6556L81.5999 72.543ZM79.166 71.7494L73.8171 74.4678L74.9431 76.6834L77.3059 77.4538L79.166 71.7494ZM75.8854 65.2944L70.181 63.4344L69.4106 65.7972L70.5366 68.0128L75.8854 65.2944ZM76.6791 62.8605L75.7916 56.9265L72.1242 57.475L70.9747 61.0005L76.6791 62.8605ZM88.0018 61.1672L88.8892 67.1012L90.8672 66.8054L92.2722 65.382L88.0018 61.1672ZM92.0229 57.0931L96.2933 61.3078L97.2882 60.2997L97.7273 58.9531L92.0229 57.0931ZM93.6102 52.2253L99.3146 54.0854L100.085 51.7225L98.959 49.5069L93.6102 52.2253ZM90.3296 45.7703L95.6785 43.0519L94.5525 40.8364L92.1897 40.0659L90.3296 45.7703ZM85.727 84.6594L89.4416 89.3713L90.8683 88.2466L91.4315 86.5194L85.727 84.6594ZM86.5207 82.2255L92.2251 84.0855L93.2205 81.0326L91.2325 78.5109L86.5207 82.2255ZM78.4784 90.3738L76.6184 96.0782L79.6713 97.0737L82.193 95.0857L78.4784 90.3738ZM76.0446 89.5802L71.3327 93.2948L72.4574 94.7214L74.1845 95.2846L76.0446 89.5802ZM70.3301 82.3316L64.6257 80.4716L63.6303 83.5245L65.6183 86.0462L70.3301 82.3316ZM71.1238 79.8977L67.4092 75.1858L65.9825 76.3105L65.4193 78.0377L71.1238 79.8977ZM78.3724 74.1833L80.2324 68.4789L77.1795 67.4834L74.6578 69.4714L78.3724 74.1833ZM80.8062 74.9769L85.5181 71.2623L84.3934 69.8357L82.6663 69.2725L80.8062 74.9769ZM48.732 46.423L49.1185 40.4355L48.5256 40.3972L47.9368 40.476L48.732 46.423ZM58.5018 47.0536L62.1447 42.286L60.7012 41.1831L58.8883 41.0661L58.5018 47.0536ZM27.7984 49.2225L27.0031 43.2754L12.6456 45.1954L24.1556 53.99L27.7984 49.2225ZM32.1135 52.5196L38.0606 51.7243L37.7311 49.261L35.7564 47.752L32.1135 52.5196ZM36.1854 82.9685L40.953 86.6114L42.4619 84.6366L42.1325 82.1732L36.1854 82.9685ZM32.8883 87.2837L28.1207 83.6408L19.3261 95.1507L33.6836 93.2307L32.8883 87.2837ZM55.725 84.2297L56.5203 90.1768L57.2524 90.0789L57.9389 89.8063L55.725 84.2297ZM63.0828 81.3087L65.2967 86.8853L66.8413 86.2721L67.8503 84.9515L63.0828 81.3087ZM69.677 72.6785L74.4446 76.3213L75.5475 74.8778L75.6645 73.0649L69.677 72.6785ZM70.3076 62.9087L76.2951 63.2951L76.3724 62.0976L75.9832 60.9625L70.3076 62.9087ZM67.1321 53.6479L72.8077 51.7017L72.2184 49.9833L70.7749 48.8803L67.1321 53.6479ZM55.4592 53.2718L60.4227 49.9008L59.8757 49.0954L59.102 48.5042L55.4592 53.2718ZM53.3016 51.6232L56.9445 46.8557L56.1708 46.2645L55.2499 45.9483L53.3016 51.6232ZM57.8713 56.8234L63.8183 56.0281L63.6306 54.6242L62.8348 53.4525L57.8713 56.8234ZM59.9072 72.0479L65.5821 73.9961L66.042 72.6565L65.8543 71.2526L59.9072 72.0479ZM58.5131 76.1085L63.2807 79.7513L63.8719 78.9777L64.188 78.0568L58.5131 76.1085ZM56.8646 78.266L60.2355 83.2296L61.041 82.6826L61.6322 81.9089L56.8646 78.266ZM53.313 80.6781L54.1083 86.6251L55.5122 86.4374L56.6839 85.6416L53.313 80.6781ZM47.6038 81.4416L43.9609 86.2091L45.9357 87.7181L48.3991 87.3886L47.6038 81.4416ZM45.4462 79.793L39.4992 80.5883L39.8286 83.0517L41.8034 84.5606L45.4462 79.793ZM41.8833 53.1502L37.1157 49.5073L35.6068 51.4821L35.9362 53.9455L41.8833 53.1502ZM43.5319 50.9926L42.7366 45.0456L40.2732 45.375L38.7643 47.3498L43.5319 50.9926ZM49.241 50.2292L51.1893 44.5543L49.8496 44.0943L48.4457 44.2821L49.241 50.2292ZM84.1591 53.6061L90.6141 50.3256L85.1774 39.6278L78.7224 42.9084L84.1591 53.6061ZM84.7643 57.4189L87.1452 50.1173L75.7363 46.3972L73.3555 53.6989L84.7643 57.4189ZM72.3321 59.6761L77.1999 61.2633L80.9199 49.8545L76.0522 48.2673L72.3321 59.6761ZM63.7659 50.4377L69.4803 57.6863L78.904 50.2571L73.1896 43.0085L63.7659 50.4377ZM63.5669 42.4291L62.7733 44.863L74.1821 48.5831L74.9758 46.1492L63.5669 42.4291ZM69.0221 36.0003L65.001 40.0744L73.5417 48.5039L77.5628 44.4298L69.0221 36.0003ZM83.7278 32.5877L72.405 34.281L74.1799 46.149L85.5026 44.4557L83.7278 32.5877ZM98.6447 36.7854L86.4752 32.8173L82.7552 44.2261L94.9246 48.1942L98.6447 36.7854ZM109.148 46.2617L100.999 38.2195L92.5699 46.7601L100.718 54.8024L109.148 46.2617ZM111.714 55.306L110.867 49.6446L98.9989 51.4194L99.8456 57.0808L111.714 55.306ZM109.897 62.9212L111.484 58.0534L100.075 54.3334L98.4879 59.2011L109.897 62.9212ZM100.658 71.4874L107.907 65.773L100.478 56.3493L93.2291 62.0637L100.658 71.4874ZM92.1698 73.5562L97.8312 72.7096L96.0563 60.8416L90.3949 61.6882L92.1698 73.5562ZM80.3322 72.8669L90.8614 73.6074L91.7033 61.637L81.1742 60.8964L80.3322 72.8669ZM87.5339 71.6556L86.6872 65.9942L74.8192 67.7691L75.6659 73.4305L87.5339 71.6556ZM77.3059 77.4538L79.7398 78.2474L83.4599 66.8386L81.026 66.045L77.3059 77.4538ZM70.5366 68.0128L73.8171 74.4678L84.5149 69.031L81.2343 62.576L70.5366 68.0128ZM70.9747 61.0005L70.181 63.4344L81.5899 67.1545L82.3835 64.7206L70.9747 61.0005ZM87.1144 55.2332L75.7916 56.9265L77.5665 68.7945L88.8892 67.1012L87.1144 55.2332ZM87.7526 52.8783L83.7315 56.9525L92.2722 65.382L96.2933 61.3078L87.7526 52.8783ZM87.9057 50.3653L86.3185 55.2331L97.7273 58.9531L99.3146 54.0854L87.9057 50.3653ZM84.9808 48.4887L88.2613 54.9437L98.959 49.5069L95.6785 43.0519L84.9808 48.4887ZM86.0357 50.6811L88.4696 51.4747L92.1897 40.0659L89.7558 39.2723L86.0357 50.6811ZM91.4315 86.5194L92.2251 84.0855L80.8162 80.3655L80.0226 82.7994L91.4315 86.5194ZM82.193 95.0857L89.4416 89.3713L82.0125 79.9475L74.7638 85.6619L82.193 95.0857ZM74.1845 95.2846L76.6184 96.0782L80.3385 84.6694L77.9046 83.8758L74.1845 95.2846ZM65.6183 86.0462L71.3327 93.2948L80.7564 85.8656L75.042 78.617L65.6183 86.0462ZM65.4193 78.0377L64.6257 80.4716L76.0346 84.1916L76.8282 81.7577L65.4193 78.0377ZM74.6578 69.4714L67.4092 75.1858L74.8384 84.6096L82.087 78.8952L74.6578 69.4714ZM82.6663 69.2725L80.2324 68.4789L76.5123 79.8877L78.9462 80.6813L82.6663 69.2725ZM91.2325 78.5109L85.5181 71.2623L76.0944 78.6915L81.8088 85.9401L91.2325 78.5109ZM48.3456 52.4106L58.1154 53.0412L58.8883 41.0661L49.1185 40.4355L48.3456 52.4106ZM28.5937 55.1695L49.5273 52.3701L47.9368 40.476L27.0031 43.2754L28.5937 55.1695ZM35.7564 47.752L31.4412 44.4549L24.1556 53.99L28.4707 57.2872L35.7564 47.752ZM42.1325 82.1732L38.0606 51.7243L26.1665 53.3149L30.2384 83.7638L42.1325 82.1732ZM37.6559 90.9265L40.953 86.6114L31.4179 79.3257L28.1207 83.6408L37.6559 90.9265ZM54.9297 78.2827L32.093 81.3366L33.6836 93.2307L56.5203 90.1768L54.9297 78.2827ZM60.8688 75.7321L53.5111 78.6531L57.9389 89.8063L65.2967 86.8853L60.8688 75.7321ZM64.9094 69.0356L58.3152 77.6658L67.8503 84.9515L74.4446 76.3213L64.9094 69.0356ZM64.32 62.5222L63.6895 72.292L75.6645 73.0649L76.2951 63.2951L64.32 62.5222ZM61.4565 55.594L64.632 64.8548L75.9832 60.9625L72.8077 51.7017L61.4565 55.594ZM54.859 51.8212L63.4892 58.4154L70.7749 48.8803L62.1447 42.286L54.859 51.8212ZM59.102 48.5042L56.9445 46.8557L49.6588 56.3908L51.8164 58.0393L59.102 48.5042ZM62.8348 53.4525L60.4227 49.9008L50.4957 56.6427L52.9077 60.1943L62.8348 53.4525ZM65.8543 71.2526L63.8183 56.0281L51.9242 57.6187L53.9602 72.8432L65.8543 71.2526ZM64.188 78.0568L65.5821 73.9961L54.2323 70.0996L52.8383 74.1602L64.188 78.0568ZM61.6322 81.9089L63.2807 79.7513L53.7456 72.4656L52.097 74.6232L61.6322 81.9089ZM56.6839 85.6416L60.2355 83.2296L53.4936 73.3025L49.942 75.7145L56.6839 85.6416ZM48.3991 87.3886L54.1083 86.6251L52.5177 74.731L46.8085 75.4945L48.3991 87.3886ZM41.8034 84.5606L43.9609 86.2091L51.2466 76.674L49.0891 75.0254L41.8034 84.5606ZM35.9362 53.9455L39.4992 80.5883L51.3933 78.9977L47.8304 52.3549L35.9362 53.9455ZM38.7643 47.3498L37.1157 49.5073L46.6509 56.793L48.2994 54.6355L38.7643 47.3498ZM48.4457 44.2821L42.7366 45.0456L44.3272 56.9397L50.0363 56.1762L48.4457 44.2821ZM55.2499 45.9483L51.1893 44.5543L47.2928 55.904L51.3534 57.2981L55.2499 45.9483Z" fill="white" mask="url(#path-4-outside-1_18_222)"/>
</svg>
