<svg width="32" height="38" viewBox="0 0 32 38" fill="none" xmlns="http://www.w3.org/2000/svg">
<path d="M27.3205 4.64749C24.3234 1.676 20.2561 0.004553 16.0136 8.08398e-06C11.7707 -0.00423158 7.70009 1.65931 4.69717 4.6247C1.69391 7.59009 0.00432743 11.6144 8.17039e-06 15.8127C-0.00427681 20.0105 1.67705 24.0383 4.67414 27.0095L14.8546 37.513H14.8543C15.1561 37.8241 15.5731 38 16.0089 38C16.4446 38 16.8616 37.8241 17.1634 37.513L27.3219 27.0332C30.3176 24.0622 32 20.0367 32 15.8405C31.9997 11.6438 30.3171 7.61892 27.3211 4.64777L27.3205 4.64749ZM16.0082 23.7538C13.8869 23.7538 11.8523 22.9199 10.3523 21.4358C8.85224 19.9516 8.00943 17.9385 8.00943 15.8397C8.00943 13.7408 8.85224 11.7277 10.3523 10.2436C11.8523 8.75943 13.8869 7.92581 16.0082 7.92581C18.1295 7.92581 20.164 8.75943 21.6641 10.2436C23.1641 11.7277 24.0069 13.7408 24.0069 15.8397C24.0042 17.9381 23.1609 19.9495 21.6614 21.4331C20.1619 22.9167 18.1287 23.7514 16.0082 23.7538Z" fill="#EE6464"/>
</svg>
