<svg width="16" height="17" viewBox="0 0 16 17" fill="none" xmlns="http://www.w3.org/2000/svg">
<path d="M13.1497 13.7915C10.0938 16.8474 5.22744 16.9553 2.30341 14.0312C-0.620909 11.1069 -0.513082 6.24111 2.54312 3.18491C5.38736 0.340667 9.79525 0.0533918 12.7506 2.38322L12.7778 1.15255C12.7879 0.682098 13.1783 0.291729 13.6488 0.281603C14.1195 0.271199 14.4925 0.644139 14.4821 1.11489L14.411 4.32824C14.4009 4.79869 14.0106 5.18906 13.5401 5.19919L10.3267 5.2702C9.85991 5.28052 9.48275 4.90909 9.49317 4.43664C9.50329 3.96619 9.89366 3.57582 10.3641 3.56569L11.3891 3.54304C9.09887 1.9516 5.84849 2.23655 3.72167 4.36337C1.34425 6.74079 1.26062 10.5247 3.53523 12.7993C5.80984 15.0739 9.59375 14.9903 11.9712 12.6129C13.1228 11.4613 13.7769 9.94951 13.8117 8.35657C13.8219 7.88611 14.2119 7.49603 14.6827 7.48562C15.154 7.47577 15.5264 7.84816 15.516 8.3189C15.471 10.3669 14.6304 12.3108 13.1497 13.7914L13.1497 13.7915Z" fill="#EAE6E5"/>
</svg>
