<svg width="496" height="20" viewBox="0 0 496 20" fill="none" xmlns="http://www.w3.org/2000/svg">
<path d="M5.81702 9.52512C10.4698 9.52512 12.7942 10.9532 16.2826 13.3345C20.3553 16.1907 25.0039 20 34.3091 20C43.6146 20 48.267 16.1906 52.3357 13.3345C55.8243 10.9532 57.5686 9.52512 62.8013 9.52512C67.4541 9.52512 69.7784 10.9532 73.2668 13.3345C77.3395 16.1907 81.9882 20 91.2934 20C100.599 20 105.251 16.1906 109.32 13.3345C112.809 10.9532 114.553 9.52512 119.785 9.52512C124.438 9.52512 126.763 10.9532 130.251 13.3345C134.324 16.1907 138.972 20 148.278 20C157.583 20 162.236 16.1906 166.304 13.3345C169.793 10.9532 171.537 9.52512 176.77 9.52512C181.423 9.52512 183.747 10.9532 187.235 13.3345C191.308 16.1907 195.957 20 205.262 20C214.567 20 219.22 16.1906 223.288 13.3345C226.777 10.9532 228.521 9.52512 233.754 9.52512C238.407 9.52512 240.731 10.9532 244.22 13.3345C248.292 16.1907 252.941 20 262.246 20C271.552 20 276.204 16.1906 280.273 13.3345C283.761 10.9532 285.506 9.52512 290.738 9.52512C295.971 9.52512 297.715 10.9532 301.204 13.3345C305.276 16.1907 309.925 20 319.23 20C328.536 20 333.188 16.1906 337.257 13.3345C340.745 10.9532 342.49 9.52512 347.722 9.52512C352.375 9.52512 354.7 10.9532 358.188 13.3345C362.261 16.1907 366.909 20 376.215 20C385.52 20 390.172 16.1906 394.241 13.3345C397.73 10.9532 399.474 9.52512 404.707 9.52512C409.359 9.52512 411.684 10.9532 415.172 13.3345C419.245 16.1907 423.894 20 433.199 20C442.504 20 447.157 16.1906 451.225 13.3345C454.714 10.9532 456.458 9.52512 461.691 9.52512C466.924 9.52512 468.668 10.9532 472.156 13.3345C476.229 16.1907 480.878 20 490.183 20C493.672 20 496 18.097 496 15.2374C496 12.3812 493.676 10.4749 490.183 10.4749C485.53 10.4749 483.206 9.04678 479.717 6.66551C475.645 3.8093 470.996 0 461.691 0C452.385 0 447.733 3.80939 443.664 6.66551C440.176 9.04678 438.431 10.4749 433.199 10.4749C428.546 10.4749 426.222 9.04678 422.733 6.66551C418.66 3.8093 414.012 0 404.707 0C395.401 0 390.749 3.80939 386.68 6.66551C383.191 9.04678 381.447 10.4749 376.215 10.4749C370.982 10.4749 369.237 9.04678 365.749 6.66551C361.676 3.8093 357.028 0 347.722 0C338.417 0 333.764 3.80939 329.696 6.66551C326.207 9.04678 324.463 10.4749 319.23 10.4749C313.997 10.4749 312.253 9.04678 308.765 6.66551C304.692 3.8093 300.043 0 290.738 0C281.433 0 276.78 3.80939 272.712 6.66551C269.223 9.04678 267.479 10.4749 262.246 10.4749C257.593 10.4749 255.269 9.04678 251.78 6.66551C247.708 3.8093 243.059 0 233.754 0C224.448 0 219.796 3.80939 215.727 6.66551C212.239 9.04678 210.495 10.4749 205.262 10.4749C200.609 10.4749 198.285 9.04678 194.796 6.66551C190.724 3.8093 186.075 0 176.77 0C167.464 0 162.812 3.80939 158.743 6.66551C155.255 9.04678 153.51 10.4749 148.278 10.4749C143.625 10.4749 141.3 9.04678 137.812 6.66551C133.739 3.8093 129.091 0 119.785 0C110.48 0 105.828 3.80939 101.759 6.66551C98.2703 9.04678 96.526 10.4749 91.2934 10.4749C86.6406 10.4749 84.3162 9.04678 80.8278 6.66551C76.7551 3.8093 72.1064 0 62.8013 0C53.4958 0 48.8434 3.80939 44.7747 6.66551C41.2861 9.04678 39.5418 10.4749 34.3091 10.4749C29.0763 10.4749 27.332 9.04678 23.8436 6.66551C19.7709 3.8093 15.1222 0 5.81702 0C2.32843 0 0 1.90305 0 4.76257C0.00405621 7.61877 2.32843 9.52512 5.81702 9.52512Z" fill="#FE6903"/>
</svg>
